<?xml version="1.0" encoding="UTF-8"?>
<svg version="1.1" xmlns="http://www.w3.org/2000/svg" width="600" height="600">
<path d="M0 0 C4.01824276 0.62321139 7.20794095 1.9074973 10.84765625 3.703125 C11.99508301 4.26427002 13.14250977 4.82541504 14.32470703 5.40356445 C14.93235901 5.70380524 15.54001099 6.00404602 16.16607666 6.31338501 C19.43656036 7.92862776 22.71656449 9.52431762 25.99609375 11.12109375 C26.66858154 11.44897385 27.34106934 11.77685394 28.03393555 12.1146698 C34.52294595 15.27075862 41.06849746 18.29940842 47.625 21.3125 C60.05465687 27.03814056 72.3679574 32.98831485 84.66064453 39.0012207 C93.72885981 43.43377655 102.83793122 47.76471189 112 52 C112 52.66 112 53.32 112 54 C93.93115654 62.85062519 75.86242489 71.68013424 57.57714844 80.0769043 C46.32267912 85.26581215 35.19259011 90.70551427 24.07373047 96.17797852 C16.14724156 100.06707708 8.21011115 103.7379119 0 107 C1.80026413 103.13868341 4.28094533 100.32024934 7.1875 97.25 C8.18948716 96.17511738 9.19079005 95.09959648 10.19140625 94.0234375 C10.67625488 93.50362305 11.16110352 92.98380859 11.66064453 92.44824219 C13.91496517 90.01065013 16.08277485 87.50024527 18.2578125 84.9921875 C20.31500399 82.63979365 22.40596915 80.31965034 24.5 78 C27.75743921 74.3904052 30.98585583 70.7605497 34.15625 67.07421875 C35.55538189 65.50019537 37.00181635 63.96806576 38.46875 62.45703125 C39.72171875 61.14798828 39.72171875 61.14798828 41 59.8125 C41.78375 59.01457031 42.5675 58.21664062 43.375 57.39453125 C45.18620689 55.15711716 45.18620689 55.15711716 45.1640625 52.65625 C43.38218002 48.59020944 40.46284578 45.82574031 37.375 42.6875 C36.08641388 41.34454179 34.79864333 40.00080051 33.51171875 38.65625 C32.89731934 38.01945312 32.28291992 37.38265625 31.64990234 36.7265625 C29.2235289 34.18745138 26.92776916 31.54710726 24.63671875 28.88671875 C22.62126228 26.56341213 20.56151538 24.28251535 18.5 22 C15.20365375 18.34608398 11.93630797 14.67032134 8.70703125 10.95703125 C7.48204742 9.55264475 6.24935332 8.15496945 5.01171875 6.76171875 C4.36847656 6.03597656 3.72523438 5.31023437 3.0625 4.5625 C2.47597656 3.90378906 1.88945312 3.24507812 1.28515625 2.56640625 C0 1 0 1 0 0 Z " fill="#006FB4" transform="translate(488,247)"/>
<path d="M0 0 C3.91660106 -0.05906707 7.83308457 -0.09394858 11.75 -0.125 C13.38775391 -0.15013672 13.38775391 -0.15013672 15.05859375 -0.17578125 C26.29851318 -0.24228965 38.43896849 -0.00623841 47.125 7.9453125 C56.17768137 17.49722263 58.51759161 27.1989041 58.28515625 40.12890625 C57.56513167 49.90348649 53.34930028 58.01804017 46.25 64.6875 C36.56706731 72.82547497 25.0976646 72.14391117 13.0625 72.0625 C8.751875 72.041875 4.44125 72.02125 0 72 C0 54.84 0 37.68 0 20 C-1.65 20 -3.3 20 -5 20 C-4.73603132 18.5404085 -4.46328585 17.08240488 -4.1875 15.625 C-4.03667969 14.81289063 -3.88585937 14.00078125 -3.73046875 13.1640625 C-2.70229834 8.71049014 -1.34828075 4.36570843 0 0 Z M22 23 C22 31.58 22 40.16 22 49 C28.24986359 49.09405455 28.24986359 49.09405455 33 46 C35.15183877 42.6825819 35.26952616 39.90523239 35.25 36 C35.25773437 34.453125 35.25773437 34.453125 35.265625 32.875 C35.00010221 30.00110633 34.59330349 28.38190825 33 26 C28.85684971 23.42203982 27.02389824 23 22 23 Z " fill="#009940" transform="translate(251,263)"/>
<path d="M0 0 C4.26837643 -0.04982839 8.536594 -0.08592015 12.80517578 -0.10986328 C14.25409906 -0.11985586 15.70300251 -0.13345453 17.15185547 -0.15087891 C36.97548901 -0.38313374 36.97548901 -0.38313374 45 6 C50.21531196 11.64992129 51.89222105 17.43152249 52 25 C51.41603443 31.15481173 50.16092324 36.24465915 46 41 C44.35606271 41.72089695 42.69054168 42.39643471 41 43 C41.38333496 43.70084717 41.76666992 44.40169434 42.16162109 45.1237793 C43.90230721 48.31011552 45.63869287 51.49877561 47.375 54.6875 C47.97828125 55.79029297 48.5815625 56.89308594 49.203125 58.02929688 C49.78320312 59.09599609 50.36328125 60.16269531 50.9609375 61.26171875 C51.76217041 62.73064575 51.76217041 62.73064575 52.57958984 64.22924805 C54 67 54 67 56 72 C47.75 72 39.5 72 31 72 C27.5625 64.625 27.5625 64.625 26.48266602 62.30712891 C24.77447859 58.6376418 24.77447859 58.6376418 23 55 C22.67 60.61 22.34 66.22 22 72 C14.74 72 7.48 72 0 72 C0 54.84 0 37.68 0 20 C-1.98 20 -3.96 20 -6 20 C-5.3808361 17.415141 -4.75492318 14.83223828 -4.125 12.25 C-3.95097656 11.52039063 -3.77695312 10.79078125 -3.59765625 10.0390625 C-3.42363281 9.33007812 -3.24960937 8.62109375 -3.0703125 7.890625 C-2.91320801 7.24125977 -2.75610352 6.59189453 -2.59423828 5.92285156 C-1.94101309 3.80912862 -1.03624898 1.95103288 0 0 Z M22 19 C22 23.29 22 27.58 22 32 C23.98 32 25.96 32 28 32 C30.31332486 28.53001271 30.33957563 27.07490752 30 23 C29.34 22.01 28.68 21.02 28 20 C25.03 19.505 25.03 19.505 22 19 Z " fill="#009940" transform="translate(377,263)"/>
<path d="M0 0 C4.53487644 -0.07479497 9.06938482 -0.12890262 13.60473633 -0.16479492 C15.14386255 -0.17977543 16.68294688 -0.2001671 18.22192383 -0.22631836 C37.86951626 -0.55154628 37.86951626 -0.55154628 43.56591797 4.34643555 C48.69967762 10.06777217 49.43755708 15.64197125 49.328125 23.046875 C48.7611238 28.14988584 46.62662122 31.37337878 43 35 C43.763125 35.391875 44.52625 35.78375 45.3125 36.1875 C49.42292385 38.95964632 51.01276708 42.24894158 52 47 C52.59288327 53.06565193 52.16643104 58.68531893 49 64 C44.66178844 69.05564189 39.68241686 71.58774947 33.02389526 72.17398071 C30.89985319 72.22946931 28.78467609 72.22550824 26.66015625 72.1953125 C25.9791687 72.19329834 25.29818115 72.19128418 24.59655762 72.18920898 C22.08513524 72.17885029 19.57380989 72.15092882 17.0625 72.125 C11.431875 72.08375 5.80125 72.0425 0 72 C0 54.84 0 37.68 0 20 C-1.65 20 -3.3 20 -5 20 C-4.55173424 15.18114303 -3.40254935 10.85413243 -1.953125 6.23046875 C-1.58864258 5.06281982 -1.22416016 3.8951709 -0.84863281 2.69213867 C-0.56858398 1.80373291 -0.28853516 0.91532715 0 0 Z M21 18 C21 20.97 21 23.94 21 27 C23.37305578 27.41780879 23.37305578 27.41780879 26 27 C27.8624438 24.59141286 27.8624438 24.59141286 29 22 C27.84315671 19.9004467 27.84315671 19.9004467 26 18 C23.37374861 17.66574265 23.37374861 17.66574265 21 18 Z M21 43 C21 46.3 21 49.6 21 53 C24.41656024 53.16677282 24.41656024 53.16677282 28 53 C30.30662599 51.11340125 30.30662599 51.11340125 30.3125 48 C30.209375 47.01 30.10625 46.02 30 45 C26.5647952 42.70986347 25.014669 42.82157027 21 43 Z " fill="#006FB4" transform="translate(5,263)"/>
<path d="M0 0 C7.26 0 14.52 0 22 0 C22.03738281 3.35800781 22.07476562 6.71601563 22.11328125 10.17578125 C22.15947197 13.42251154 22.21071462 16.6691254 22.26245117 19.91577148 C22.29573686 22.17481431 22.32375733 24.43394103 22.34643555 26.69311523 C22.37991426 29.93770148 22.43222718 33.18151633 22.48828125 36.42578125 C22.49467117 37.43836502 22.5010611 38.45094879 22.50764465 39.49421692 C22.53733589 40.90534004 22.53733589 40.90534004 22.56762695 42.3449707 C22.57873001 43.17325882 22.58983307 44.00154694 22.60127258 44.85493469 C23.08398392 47.45181492 23.99002939 48.35015962 26 50 C28.50965614 49.29660434 28.50965614 49.29660434 31 48 C32.01333035 45.18647538 32.14555338 42.4782035 32.20532227 39.50683594 C32.22526749 38.62622498 32.24521271 37.74561401 32.26576233 36.83831787 C32.28247482 35.89651672 32.29918732 34.95471558 32.31640625 33.984375 C32.33718735 33.01340881 32.35796844 32.04244263 32.37937927 31.04205322 C32.44468862 27.94477315 32.50367323 24.84740932 32.5625 21.75 C32.60570292 19.64842889 32.64931778 17.5468662 32.69335938 15.4453125 C32.80112506 10.29695955 32.90033713 5.14854171 33 0 C40.26 0 47.52 0 55 0 C55.046056 6.81372932 55.08583902 13.62691256 55.10986328 20.44067383 C55.11988476 22.75579667 55.13350557 25.07090698 55.15087891 27.38598633 C55.17529702 30.72480374 55.18652195 34.06345294 55.1953125 37.40234375 C55.20563507 38.42770737 55.21595764 39.45307098 55.22659302 40.50950623 C55.22816945 50.73994247 53.92948519 59.12210845 47 67 C40.7333124 72.22435822 33.5148114 74.50047779 25.38671875 74.23828125 C17.44824273 73.44573291 12.03800609 70.79459932 6.0078125 65.62109375 C-0.92847508 56.56613467 -0.49753977 46.73872668 -0.25 35.875 C-0.2298943 34.33075246 -0.21165076 32.7864795 -0.1953125 31.2421875 C-0.15166203 27.4942552 -0.08286244 23.74729461 0 20 C-1.98 20 -3.96 20 -6 20 C-5.76381238 18.53936606 -5.50994589 17.08159337 -5.25 15.625 C-5.11078125 14.81289063 -4.9715625 14.00078125 -4.828125 13.1640625 C-3.64470909 8.64252056 -1.73582196 4.33955491 0 0 Z " fill="#006EB3" transform="translate(109,263)"/>
<path d="M0 0 C10.23 0 20.46 0 31 0 C35.9913185 16.81004765 35.9913185 16.81004765 38.109375 23.9765625 C39.55481504 28.86714489 41.00143458 33.75735653 42.45507812 38.64550781 C43.62691941 42.58631643 44.79346835 46.52865607 45.95635986 50.47211456 C46.40101883 51.97656269 46.84758395 53.48044878 47.29608154 54.98375702 C47.92379301 57.08895348 48.54470587 59.19604383 49.1640625 61.30371094 C49.51936035 62.50284119 49.8746582 63.70197144 50.24072266 64.93743896 C51 68 51 68 51 72 C43.41 72 35.82 72 28 72 C26 67 26 67 26 63 C20.72 63 15.44 63 10 63 C9.67 65.97 9.34 68.94 9 72 C1.08 72 -6.84 72 -15 72 C-13.65329968 65.26649841 -12.20474966 58.8727176 -10.21484375 52.34375 C-9.95369278 51.47480103 -9.69254181 50.60585205 -9.42347717 49.71057129 C-8.8768544 47.89493454 -8.32804067 46.07995606 -7.77709961 44.265625 C-6.93163075 41.4806668 -6.09320627 38.6936598 -5.25585938 35.90625 C-4.72175899 34.13529452 -4.18726805 32.36445678 -3.65234375 30.59375 C-3.40129379 29.76049194 -3.15024384 28.92723389 -2.8915863 28.06872559 C-1.11671695 22.23343389 -1.11671695 22.23343389 0 20 C-1.65 20 -3.3 20 -5 20 C-4.3276392 12.77212136 -2.25276149 7.32147485 0 0 Z " fill="#009A40" transform="translate(323,263)"/>
<path d="M0 0 C13.53 0 27.06 0 41 0 C37.625 13.5 37.625 13.5 35 20 C30.71 20 26.42 20 22 20 C22 21.98 22 23.96 22 26 C27.61 26 33.22 26 39 26 C37.64583062 32.45834629 35.95326547 38.69627962 34 45 C30.04 45 26.08 45 22 45 C22 47.31 22 49.62 22 52 C28.27 52 34.54 52 41 52 C39.71034986 58.94426996 38.05985908 65.13380305 36 72 C24.12 72 12.24 72 0 72 C0 54.84 0 37.68 0 20 C-1.98 20 -3.96 20 -6 20 C-4.02 13.4 -2.04 6.8 0 0 Z " fill="#006EB4" transform="translate(174,263)"/>
<path d="M0 0 C14.52 0 29.04 0 44 0 C42.59677117 7.01614413 41.11681109 13.264692 39 20 C35.7 20 32.4 20 29 20 C29 37.16 29 54.32 29 72 C21.74 72 14.48 72 7 72 C7 54.84 7 37.68 7 20 C3.04 20 -0.92 20 -5 20 C-3.71034986 13.05573004 -2.05985908 6.86619695 0 0 Z " fill="#009940" transform="translate(437,263)"/>
<path d="M0 0 C7.59 0 15.18 0 23 0 C23 17.16 23 34.32 23 52 C28.28 52 33.56 52 39 52 C38 59 38 59 34 72 C22.78 72 11.56 72 0 72 C0 54.84 0 37.68 0 20 C-1.65 20 -3.3 20 -5 20 C-4.73603132 18.5404085 -4.46328585 17.08240488 -4.1875 15.625 C-4.03667969 14.81289063 -3.88585938 14.00078125 -3.73046875 13.1640625 C-2.70452645 8.72014131 -1.31053928 4.36846426 0 0 Z " fill="#006FB4" transform="translate(63,263)"/>
<path d="M0 0 C6.33493889 5.09549433 11.62402926 10.91597458 17 17 C17.59683594 17.6703125 18.19367188 18.340625 18.80859375 19.03125 C24.31267349 25.2612875 29.64222677 31.64430517 35 38 C33.76751873 41.52910489 32.55771197 43.78087432 29.8125 46.3125 C26.64206198 49.34566132 23.74762171 52.51116497 20.8828125 55.83203125 C18.03982027 59.10560115 15.12263526 62.31137604 12.21484375 65.52734375 C9.56850387 68.48172319 6.98079538 71.4835572 4.41015625 74.50390625 C3 76 3 76 1 77 C2.00582491 71.52972417 3.46442666 66.56843189 5.48828125 61.3828125 C5.94654297 60.19816406 6.40480469 59.01351562 6.87695312 57.79296875 C7.8339579 55.34772389 8.81058324 52.91006754 9.80664062 50.48046875 C12.99407473 42.10492864 13.37322739 37.25783126 10 29 C9.17299888 26.69667856 8.34618632 24.39328941 7.51953125 22.08984375 C6.62202022 19.70390567 5.71961305 17.31980403 4.8125 14.9375 C3.89944437 12.531046 2.9891359 10.12354726 2.08203125 7.71484375 C1.68218018 6.66417725 1.2823291 5.61351074 0.87036133 4.53100586 C0 2 0 2 0 0 Z " fill="#009940" transform="translate(490,261)"/>
<path d="M0 0 C0.66 0 1.32 0 2 0 C2.50449402 2.58252893 3.00374301 5.16588703 3.5 7.75 C3.64308594 8.47960937 3.78617187 9.20921875 3.93359375 9.9609375 C4.58888879 13.39343532 5 16.49169491 5 20 C2.36 20 -0.28 20 -3 20 C-2.45136137 13.2142064 -1.45732062 6.64990964 0 0 Z " fill="#E6F5EC" transform="translate(340,289)"/>
<path d="" fill="#009540" transform="translate(0,0)"/>
</svg>
