<?xml version="1.0" encoding="UTF-8"?>
<svg version="1.1" xmlns="http://www.w3.org/2000/svg" width="404" height="316">
<path d="M0 0 C133.32 0 266.64 0 404 0 C404 104.28 404 208.56 404 316 C270.68 316 137.36 316 0 316 C0 211.72 0 107.44 0 0 Z " fill="#000000" transform="translate(0,0)"/>
<path d="M0 0 C4.021875 -0.103125 8.04375 -0.20625 12.1875 -0.3125 C13.44715576 -0.35802002 14.70681152 -0.40354004 16.00463867 -0.45043945 C17.0072876 -0.46292725 18.00993652 -0.47541504 19.04296875 -0.48828125 C20.57473755 -0.52755737 20.57473755 -0.52755737 22.13745117 -0.56762695 C26.16345137 0.23070571 27.57536272 1.72885458 30 5 C30.64697266 8.42578125 30.64697266 8.42578125 30.6640625 12.3125 C30.66884613 13.00384033 30.67362976 13.69518066 30.67855835 14.4074707 C30.68194736 15.86314176 30.6728145 17.31888996 30.65185547 18.77441406 C30.62506546 20.99457497 30.65162647 23.20968261 30.68359375 25.4296875 C30.68028946 26.84896942 30.67388281 28.26824821 30.6640625 29.6875 C30.65842285 30.97011719 30.6527832 32.25273437 30.64697266 33.57421875 C29.83494029 37.87400672 28.43914576 39.36645344 25 42 C22.96362305 42.56762695 22.96362305 42.56762695 21.01171875 42.48828125 C20.30595703 42.47216797 19.60019531 42.45605469 18.87304688 42.43945312 C17.79120117 42.37661133 17.79120117 42.37661133 16.6875 42.3125 C15.94693359 42.28994141 15.20636719 42.26738281 14.44335938 42.24414062 C12.62802643 42.1855815 10.81374319 42.09590886 9 42 C9 39.03 9 36.06 9 33 C6.03 33 3.06 33 0 33 C0 22.11 0 11.22 0 0 Z " fill="#F7F7F7" transform="translate(70,137)"/>
<path d="M0 0 C3.3 0 6.6 0 10 0 C10 5.28 10 10.56 10 16 C12.64 16 15.28 16 18 16 C18 10.72 18 5.44 18 0 C21.3 0 24.6 0 28 0 C28 13.86 28 27.72 28 42 C24.7 42 21.4 42 18 42 C18 36.72 18 31.44 18 26 C15.36 26 12.72 26 10 26 C10 31.28 10 36.56 10 42 C6.7 42 3.4 42 0 42 C0 28.14 0 14.28 0 0 Z " fill="#F6F6F6" transform="translate(163,137)"/>
<path d="M0 0 C3.3 0 6.6 0 10 0 C10.01458252 0.83772949 10.02916504 1.67545898 10.04418945 2.53857422 C10.10520707 5.64378902 10.17935065 8.74833117 10.26245117 11.85302734 C10.31209959 13.85882336 10.34654164 15.86497687 10.38085938 17.87109375 C10.41630859 19.12792969 10.45175781 20.38476562 10.48828125 21.6796875 C10.51446533 22.84226074 10.54064941 24.00483398 10.56762695 25.20263672 C10.71031006 26.1257666 10.85299316 27.04889648 11 28 C11.99 28.66 12.98 29.32 14 30 C16.75439516 27.24560484 16.30989276 25.53396797 16.4140625 21.6796875 C16.45273438 20.42285156 16.49140625 19.16601562 16.53125 17.87109375 C16.5621875 16.55238281 16.593125 15.23367187 16.625 13.875 C16.66318029 12.53513082 16.70223206 11.19528617 16.7421875 9.85546875 C16.8367203 6.57045381 16.92227156 3.28544862 17 0 C20.3 0 23.6 0 27 0 C27.22527113 4.21314772 27.38702895 8.42296715 27.49438477 12.64038086 C27.53919684 14.06938818 27.60027938 15.49799371 27.67895508 16.92553711 C28.10709354 24.90346365 27.93378089 30.83824203 22.74609375 37.42578125 C19.91235605 40.55413143 17.76613884 42.77234322 13.5 43.375 C7.99606939 42.59748637 5.15854535 38.57452931 1.88525391 34.41796875 C-1.57604849 28.14262124 -0.94439263 21.74180976 -0.5625 14.8125 C-0.51724184 13.36926743 -0.4761973 11.92589631 -0.43945312 10.48242188 C-0.34141294 6.98534754 -0.18679749 3.49359195 0 0 Z " fill="#F5F5F5" transform="translate(214,137)"/>
<path d="M0 0 C0.88623047 0.01289063 1.77246094 0.02578125 2.68554688 0.0390625 C3.59755859 0.07257813 4.50957031 0.10609375 5.44921875 0.140625 C6.38056641 0.15867188 7.31191406 0.17671875 8.27148438 0.1953125 C10.56034024 0.24226339 12.84866402 0.31400177 15.13671875 0.390625 C15.13671875 3.690625 15.13671875 6.990625 15.13671875 10.390625 C10.18671875 10.390625 5.23671875 10.390625 0.13671875 10.390625 C0.13671875 12.370625 0.13671875 14.350625 0.13671875 16.390625 C3.76671875 16.390625 7.39671875 16.390625 11.13671875 16.390625 C11.13671875 19.690625 11.13671875 22.990625 11.13671875 26.390625 C7.50671875 26.390625 3.87671875 26.390625 0.13671875 26.390625 C0.13671875 28.370625 0.13671875 30.350625 0.13671875 32.390625 C5.08671875 32.390625 10.03671875 32.390625 15.13671875 32.390625 C15.13671875 35.690625 15.13671875 38.990625 15.13671875 42.390625 C11.90614658 42.52585825 8.68125185 42.62484046 5.44921875 42.703125 C4.08120117 42.7659668 4.08120117 42.7659668 2.68554688 42.83007812 C1.79931641 42.84619141 0.91308594 42.86230469 0 42.87890625 C-0.81170654 42.90509033 -1.62341309 42.93127441 -2.4597168 42.95825195 C-6.15529697 42.08550194 -7.59068317 40.37909768 -9.86328125 37.390625 C-10.36419346 34.65488821 -10.56770979 32.55013117 -10.52734375 29.82421875 C-10.53212738 29.1083107 -10.53691101 28.39240265 -10.5418396 27.65480042 C-10.54522897 26.14785554 -10.53609364 24.64083617 -10.51513672 23.1340332 C-10.48830922 20.8305266 -10.51492829 18.5318733 -10.546875 16.22851562 C-10.54357149 14.76040595 -10.53716645 13.29229928 -10.52734375 11.82421875 C-10.5374649 11.13871445 -10.54758606 10.45321014 -10.55801392 9.74693298 C-10.47016961 6.15617768 -10.08201831 4.62917131 -7.62573242 1.95043945 C-4.72833076 0.31442538 -3.27999342 -0.08464499 0 0 Z " fill="#F4F4F4" transform="translate(257.86328125,136.609375)"/>
<path d="M0 0 C1.33417969 0.01933594 1.33417969 0.01933594 2.6953125 0.0390625 C4.07589844 0.08933594 4.07589844 0.08933594 5.484375 0.140625 C6.42023438 0.15867188 7.35609375 0.17671875 8.3203125 0.1953125 C10.62543938 0.24235591 12.93003854 0.31409722 15.234375 0.390625 C15.234375 3.690625 15.234375 6.990625 15.234375 10.390625 C10.284375 10.390625 5.334375 10.390625 0.234375 10.390625 C0.234375 12.370625 0.234375 14.350625 0.234375 16.390625 C3.864375 16.390625 7.494375 16.390625 11.234375 16.390625 C11.234375 19.690625 11.234375 22.990625 11.234375 26.390625 C7.604375 26.390625 3.974375 26.390625 0.234375 26.390625 C0.234375 28.370625 0.234375 30.350625 0.234375 32.390625 C5.184375 32.390625 10.134375 32.390625 15.234375 32.390625 C15.234375 35.690625 15.234375 38.990625 15.234375 42.390625 C11.9834872 42.49858806 8.73618321 42.57791795 5.484375 42.640625 C4.10378906 42.69089844 4.10378906 42.69089844 2.6953125 42.7421875 C1.80585937 42.75507813 0.91640625 42.76796875 0 42.78125 C-1.22541504 42.8126709 -1.22541504 42.8126709 -2.47558594 42.84472656 C-5.7626627 42.19291816 -6.83721517 41.11991635 -8.765625 38.390625 C-9.1638545 35.68867542 -9.32762504 33.40147928 -9.296875 30.703125 C-9.3007019 29.96360596 -9.30452881 29.22408691 -9.30847168 28.4621582 C-9.31118771 26.9021671 -9.30384792 25.34213022 -9.28710938 23.78222656 C-9.26569173 21.39805314 -9.28691763 19.01689251 -9.3125 16.6328125 C-9.30985666 15.1145767 -9.30473156 13.59634277 -9.296875 12.078125 C-9.30497192 11.36760986 -9.31306885 10.65709473 -9.32141113 9.92504883 C-9.25862862 6.60138666 -8.96704349 4.67569394 -7.03027344 1.93457031 C-4.4091351 0.14758467 -3.14079842 -0.08053329 0 0 Z " fill="#F8F8F8" transform="translate(114.765625,136.609375)"/>
<path d="M0 0 C3.3 0 6.6 0 10 0 C10.03738281 1.27617187 10.07476562 2.55234375 10.11328125 3.8671875 C10.17892791 5.53648838 10.2453757 7.20575789 10.3125 8.875 C10.33505859 9.71675781 10.35761719 10.55851563 10.38085938 11.42578125 C10.41630859 12.23144531 10.45175781 13.03710938 10.48828125 13.8671875 C10.51446533 14.61081543 10.54064941 15.35444336 10.56762695 16.12060547 C10.86729591 18.40733826 10.86729591 18.40733826 14 20 C16.29633824 16.55549263 16.54016485 14.06187717 17 10 C20.3 10 23.6 10 27 10 C27.98219681 19.69919349 27.98219681 19.69919349 25.25390625 23.3125 C24.53074219 24.01375 23.80757813 24.715 23.0625 25.4375 C18.47816757 29.88438331 18.06231784 33.44271311 17.9375 39.69140625 C17.958125 40.45324219 17.97875 41.21507812 18 42 C15.03 42 12.06 42 9 42 C9.020625 41.23816406 9.04125 40.47632813 9.0625 39.69140625 C9.11026212 33.30675618 9.11026212 33.30675618 6.15234375 27.9375 C5.42144531 27.31875 4.69054687 26.7 3.9375 26.0625 C0.49899485 22.7894844 -0.27499039 20.38352226 -0.52734375 15.7734375 C-0.58745646 10.50088455 -0.34587736 5.26021821 0 0 Z " fill="#F8F8F8" transform="translate(307,137)"/>
<path d="M0 0 C0.79599609 0.01611328 1.59199219 0.03222656 2.41210938 0.04882812 C3.22873047 0.09072266 4.04535156 0.13261719 4.88671875 0.17578125 C6.1406543 0.20961914 6.1406543 0.20961914 7.41992188 0.24414062 C9.47213024 0.30277515 11.52341077 0.3924491 13.57421875 0.48828125 C13.57421875 3.78828125 13.57421875 7.08828125 13.57421875 10.48828125 C9.28421875 10.48828125 4.99421875 10.48828125 0.57421875 10.48828125 C0.57421875 21.04828125 0.57421875 31.60828125 0.57421875 42.48828125 C-2.72578125 42.48828125 -6.02578125 42.48828125 -9.42578125 42.48828125 C-9.54963209 37.31055379 -9.64023696 32.13369337 -9.70043945 26.95483398 C-9.72554186 25.19426449 -9.75963153 23.43379878 -9.80297852 21.67358398 C-9.8638224 19.13889946 -9.89203238 16.6055955 -9.9140625 14.0703125 C-9.93986893 13.28678909 -9.96567535 12.50326569 -9.99226379 11.69599915 C-9.99438706 7.53334916 -9.75415666 5.92620998 -7.171875 2.48242188 C-4.38320697 0.45736493 -3.35734928 -0.12076796 0 0 Z " fill="#F6F6F6" transform="translate(288.42578125,136.51171875)"/>
<path d="M0 0 C2.97 0 5.94 0 9 0 C9 10.56 9 21.12 9 32 C13.29 32 17.58 32 22 32 C22 35.3 22 38.6 22 42 C19.08234109 42.10806144 16.16868875 42.18732877 13.25 42.25 C12.425 42.28351563 11.6 42.31703125 10.75 42.3515625 C9.95078125 42.36445313 9.1515625 42.37734375 8.328125 42.390625 C7.22839355 42.4220459 7.22839355 42.4220459 6.10644531 42.45410156 C2.90727955 41.7644344 1.86866455 40.68438449 0 38 C-0.34890086 34.97094023 -0.46754756 32.31696713 -0.390625 29.296875 C-0.38496521 28.45908508 -0.37930542 27.62129517 -0.37347412 26.75811768 C-0.35112329 24.08815834 -0.30093098 21.41955213 -0.25 18.75 C-0.22993325 16.93751941 -0.21168278 15.12501774 -0.1953125 13.3125 C-0.15126294 8.87448041 -0.08224566 4.43746944 0 0 Z " fill="#FCFCFC" transform="translate(136,137)"/>
<path d="M0 0 C3.3 0 6.6 0 10 0 C10 13.86 10 27.72 10 42 C6.7 42 3.4 42 0 42 C0 28.14 0 14.28 0 0 Z " fill="#F5F5F5" transform="translate(197,137)"/>
<path d="M0 0 C3.3 0 6.6 0 10 0 C10 7.26 10 14.52 10 22 C6.7 22 3.4 22 0 22 C0 14.74 0 7.48 0 0 Z " fill="#050505" transform="translate(80,147)"/>
<path d="M0 0 C3.3 0 6.6 0 10 0 C10 3.3 10 6.6 10 10 C6.7 10 3.4 10 0 10 C0 6.7 0 3.4 0 0 Z " fill="#EF403D" transform="translate(324,137)"/>
<path d="M0 0 C2.97 0 5.94 0 9 0 C9 2.97 9 5.94 9 9 C6.03 9 3.06 9 0 9 C0 6.03 0 3.06 0 0 Z " fill="#ED302D" transform="translate(70,170)"/>
<path d="M0 0 C0.33 0 0.66 0 1 0 C1 7.26 1 14.52 1 22 C4.3 22 7.6 22 11 22 C11 22.33 11 22.66 11 23 C7.7 23 4.4 23 1 23 C1 25.97 1 28.94 1 32 C0.67 32 0.34 32 0 32 C0 29.03 0 26.06 0 23 C-2.97 23 -5.94 23 -9 23 C-9 22.67 -9 22.34 -9 22 C-6.03 22 -3.06 22 0 22 C0 14.74 0 7.48 0 0 Z " fill="#C89999" transform="translate(79,147)"/>
<path d="M0 0 C3.3 0 6.6 0 10 0 C10 2.64 10 5.28 10 8 C9.34 8 8.68 8 8 8 C8 6.02 8 4.04 8 2 C6.02 2 4.04 2 2 2 C2.04125 2.94875 2.0825 3.8975 2.125 4.875 C2 8 2 8 0 10 C0 6.7 0 3.4 0 0 Z " fill="#E33A37" transform="translate(324,137)"/>
<path d="M0 0 C0.66 0 1.32 0 2 0 C2 1.98 2 3.96 2 6 C3.98 6 5.96 6 8 6 C8 6.66 8 7.32 8 8 C5.36 8 2.72 8 0 8 C0 5.36 0 2.72 0 0 Z " fill="#EE3C38" transform="translate(70,171)"/>
</svg>
