<?xml version="1.0" encoding="UTF-8"?>
<svg version="1.1" xmlns="http://www.w3.org/2000/svg" width="168" height="168">
<path d="M0 0 C55.44 0 110.88 0 168 0 C168 55.44 168 110.88 168 168 C112.56 168 57.12 168 0 168 C0 112.56 0 57.12 0 0 Z " fill="#FEFEFE" transform="translate(0,0)"/>
<path d="M0 0 C6.27 0 12.54 0 19 0 C19 1.98 19 3.96 19 6 C15.04 5.67 11.08 5.34 7 5 C7 6.65 7 8.3 7 10 C9.64 10 12.28 10 15 10 C15 11.65 15 13.3 15 15 C12.36 15 9.72 15 7 15 C7 16.98 7 18.96 7 21 C9.64 21 12.28 21 15 21 C15 20.34 15 19.68 15 19 C16.98 19 18.96 19 21 19 C20.87625 17.4221875 20.87625 17.4221875 20.75 15.8125 C21.04003583 11.38945355 21.86880882 10.04421365 25 7 C28.25854539 4.71901823 31.08342357 4.66667435 35 5 C35.99 5.66 36.98 6.32 38 7 C38 8.32 38 9.64 38 11 C37.37351563 10.97679688 36.74703125 10.95359375 36.1015625 10.9296875 C35.28429687 10.91164063 34.46703125 10.89359375 33.625 10.875 C32.40683594 10.84019531 32.40683594 10.84019531 31.1640625 10.8046875 C28.78657757 10.78629949 28.78657757 10.78629949 27 13 C26.66666667 15.5 26.66666667 15.5 27 18 C28.78657757 20.21370051 28.78657757 20.21370051 31.1640625 20.1953125 C32.38222656 20.16050781 32.38222656 20.16050781 33.625 20.125 C34.44226563 20.10695313 35.25953125 20.08890625 36.1015625 20.0703125 C37.04128906 20.03550781 37.04128906 20.03550781 38 20 C38.68707555 22.49064888 39 24.37886292 39 27 C39.495 28.485 39.495 28.485 40 30 C39 32 39 32 35.9375 33.125 C34.968125 33.41375 33.99875 33.7025 33 34 C32.67 37.96 32.34 41.92 32 46 C30.35 46 28.7 46 27 46 C27 41.71 27 37.42 27 33 C26.34 33 25.68 33 25 33 C24.97873047 33.90492187 24.97873047 33.90492187 24.95703125 34.828125 C24.56761044 41.35355478 24.56761044 41.35355478 21.75 44.5625 C18.84108295 46.08307027 17.22689561 46.36878807 14 46 C14 47.98 14 49.96 14 52 C12.02 52 10.04 52 8 52 C8 44.08 8 36.16 8 28 C11.96 27.505 11.96 27.505 16 27 C9.07 26.505 9.07 26.505 2 26 C2 19.07 2 12.14 2 5 C1.34 5 0.68 5 0 5 C0 3.35 0 1.7 0 0 Z " fill="#EFE8EC" transform="translate(46,59)"/>
<path d="M0 0 C1.258125 -0.185625 2.51625 -0.37125 3.8125 -0.5625 C5.3903125 -0.7790625 5.3903125 -0.7790625 7 -1 C9 1 9 1 9.22705078 2.97119141 C9.21657715 3.75671387 9.20610352 4.54223633 9.1953125 5.3515625 C9.18886719 6.20234375 9.18242187 7.053125 9.17578125 7.9296875 C9.15902344 8.81914063 9.14226562 9.70859375 9.125 10.625 C9.11597656 11.5221875 9.10695312 12.419375 9.09765625 13.34375 C9.0740497 15.56276586 9.0411231 17.78125077 9 20 C7.68 20.33 6.36 20.66 5 21 C5.99 21.66 6.98 22.32 8 23 C8 24.32 8 25.64 8 27 C5.69 26.67 3.38 26.34 1 26 C2.80834309 27.90351904 4.51649131 29.36034277 6.6875 30.875 C9 33 9 33 9.5 35.5625 C9 38 9 38 7.9375 39.8125 C4.92932949 41.65621741 2.44932782 41.30257262 -1 41 C-3.4375 40 -3.4375 40 -5 39 C-5 38.34 -5 37.68 -5 37 C-5.680625 37.66 -6.36125 38.32 -7.0625 39 C-10.69413218 41.47260063 -12.6867465 41.47925039 -17 41 C-17.99 40.34 -18.98 39.68 -20 39 C-19.67 37.68 -19.34 36.36 -19 35 C-16.69 35.33 -14.38 35.66 -12 36 C-12.763125 35.401875 -13.52625 34.80375 -14.3125 34.1875 C-15.199375 33.465625 -16.08625 32.74375 -17 32 C-17.61875 31.525625 -18.2375 31.05125 -18.875 30.5625 C-20 29 -20 29 -19.9375 26.5 C-18.83236473 23.55297262 -17.64505618 22.62116347 -15 21 C-15.33 20.67 -15.66 20.34 -16 20 C-16.08669432 18.5112814 -16.10703494 17.018555 -16.09765625 15.52734375 C-16.09282227 14.17866211 -16.09282227 14.17866211 -16.08789062 12.80273438 C-16.07951172 11.85720703 -16.07113281 10.91167969 -16.0625 9.9375 C-16.05798828 8.98810547 -16.05347656 8.03871094 -16.04882812 7.06054688 C-16.0370011 4.70696935 -16.02052025 2.35351523 -16 0 C-14.5762351 -0.18273726 -13.15156794 -0.35845271 -11.7265625 -0.53125 C-10.93330566 -0.62986328 -10.14004883 -0.72847656 -9.32275391 -0.83007812 C-6.13483427 -1.0632915 -3.15334361 -0.46716202 0 0 Z " fill="#F3EDEF" transform="translate(127,65)"/>
<path d="M0 0 C5.61 0 11.22 0 17 0 C17 1.65 17 3.3 17 5 C18.98 5 20.96 5 23 5 C23.66 6.65 24.32 8.3 25 10 C26.70840281 8.36587557 27.93453047 7.13093906 29 5 C30.32 5 31.64 5 33 5 C33.1875 7.3125 33.1875 7.3125 33 10 C32 11 31 12 30 13 C30.28516028 16.0417096 31.26030535 17.39045802 33 20 C33 21.32 33 22.64 33 24 C31.68 24 30.36 24 29 24 C28.34 22.35 27.68 20.7 27 19 C26.34 19 25.68 19 25 19 C24.01 21.475 24.01 21.475 23 24 C15.74 24 8.48 24 1 24 C0.67 16.08 0.34 8.16 0 0 Z " fill="#ECEDF2" transform="translate(18,82)"/>
<path d="M0 0 C3.6578218 2.03993908 5.66946174 3.50419262 8 7 C8.43660384 10.30571478 8.71042728 12.81419387 6.94921875 15.75390625 C5.16506981 17.93804138 3.54181233 19.72909383 1 21 C-6.07953977 21.58029015 -6.07953977 21.58029015 -9.875 19.1875 C-12.4169336 16.57080364 -13.8864233 14.85182526 -14.375 11.1875 C-13.90008981 7.15076336 -12.55757123 5.12592039 -10 2 C-6.79214982 -0.35242347 -3.90350748 -0.4684209 0 0 Z " fill="#C92D34" transform="translate(101,64)"/>
<path d="M0 0 C1.258125 -0.185625 2.51625 -0.37125 3.8125 -0.5625 C5.3903125 -0.7790625 5.3903125 -0.7790625 7 -1 C9 1 9 1 9.22705078 2.97119141 C9.21657715 3.75671387 9.20610352 4.54223633 9.1953125 5.3515625 C9.18886719 6.20234375 9.18242187 7.053125 9.17578125 7.9296875 C9.15902344 8.81914063 9.14226562 9.70859375 9.125 10.625 C9.11597656 11.5221875 9.10695312 12.419375 9.09765625 13.34375 C9.0740497 15.56276586 9.0411231 17.78125077 9 20 C7.68 20 6.36 20 5 20 C4.67 15.05 4.34 10.1 4 5 C3.01 5.33 2.02 5.66 1 6 C0.67 10.62 0.34 15.24 0 20 C-1.65 20 -3.3 20 -5 20 C-5 14.72 -5 9.44 -5 4 C-6.98 4.99 -6.98 4.99 -9 6 C-9.70788435 9.33975372 -9.70788435 9.33975372 -9.75 13.125 C-9.80671875 14.40632813 -9.8634375 15.68765625 -9.921875 17.0078125 C-9.94765625 17.99523437 -9.9734375 18.98265625 -10 20 C-11.98 20 -13.96 20 -16 20 C-16 13.4 -16 6.8 -16 0 C-9.28780896 -0.745799 -6.12526833 -0.90744716 0 0 Z " fill="#CA2F36" transform="translate(127,65)"/>
<path d="M0 0 C6.27 0 12.54 0 19 0 C19 1.98 19 3.96 19 6 C15.04 5.67 11.08 5.34 7 5 C7 6.65 7 8.3 7 10 C9.64 10 12.28 10 15 10 C15 11.65 15 13.3 15 15 C12.36 15 9.72 15 7 15 C7 16.98 7 18.96 7 21 C10.96 20.67 14.92 20.34 19 20 C19 21.98 19 23.96 19 26 C13.39 26 7.78 26 2 26 C2 19.07 2 12.14 2 5 C1.34 5 0.68 5 0 5 C0 3.35 0 1.7 0 0 Z " fill="#C92C33" transform="translate(46,59)"/>
<path d="M0 0 C5.61 0 11.22 0 17 0 C17 1.98 17 3.96 17 6 C15.68 6 14.36 6 13 6 C13 5.34 13 4.68 13 4 C10.36 4 7.72 4 5 4 C5 5.98 5 7.96 5 10 C7.31 10 9.62 10 12 10 C12 11.32 12 12.64 12 14 C9.69 14 7.38 14 5 14 C5 15.65 5 17.3 5 19 C8.96 18.67 12.92 18.34 17 18 C17 19.98 17 21.96 17 24 C11.72 24 6.44 24 1 24 C0.67 16.08 0.34 8.16 0 0 Z " fill="#324C93" transform="translate(18,82)"/>
<path d="M0 0 C2.9375 1.5 2.9375 1.5 5 4 C5.41708655 6.80196606 5.23811939 9.14256735 5 12 C1.37 12 -2.26 12 -6 12 C-6 12.66 -6 13.32 -6 14 C-1.545 13.505 -1.545 13.505 3 13 C3.33 14.32 3.66 15.64 4 17 C0.58442978 19.10188936 -2.02173 19.4871351 -6 19 C-8.69990662 17.20006226 -10.5418865 15.916227 -12 13 C-12.68839635 6.00130378 -12.68839635 6.00130378 -9.9375 2 C-6.23727467 -0.51930235 -4.3968344 -0.7066341 0 0 Z " fill="#3C5598" transform="translate(99,87)"/>
<path d="M0 0 C2.97 0 5.94 0 9 0 C9.66 0.99 10.32 1.98 11 3 C10.360625 3.165 9.72125 3.33 9.0625 3.5 C6.83880759 4.781786 6.83880759 4.781786 6.51171875 6.9140625 C6.2724022 8.93575155 6.13106972 10.96841939 6 13 C8.47627099 12.36078035 8.47627099 12.36078035 11 11 C11.70211894 9.34795544 12.36971413 7.68076231 13 6 C15.05859375 4.84375 15.05859375 4.84375 17 4 C16.8101482 12.07733122 16.8101482 12.07733122 13.75 15.5625 C10.84108295 17.08307027 9.22689561 17.36878807 6 17 C6 18.98 6 20.96 6 23 C4.02 23 2.04 23 0 23 C0 15.41 0 7.82 0 0 Z " fill="#3C5597" transform="translate(54,88)"/>
<path d="M0 0 C0.99 0.66 1.98 1.32 3 2 C3 3.32 3 4.64 3 6 C2.37351562 5.97679688 1.74703125 5.95359375 1.1015625 5.9296875 C0.28429687 5.91164063 -0.53296875 5.89359375 -1.375 5.875 C-2.59316406 5.84019531 -2.59316406 5.84019531 -3.8359375 5.8046875 C-6.21342243 5.78629949 -6.21342243 5.78629949 -8 8 C-8.33333333 10.5 -8.33333333 10.5 -8 13 C-6.21342243 15.21370051 -6.21342243 15.21370051 -3.8359375 15.1953125 C-3.02382812 15.17210938 -2.21171875 15.14890625 -1.375 15.125 C-0.55773437 15.10695313 0.25953125 15.08890625 1.1015625 15.0703125 C1.72804688 15.04710938 2.35453125 15.02390625 3 15 C3.33 16.32 3.66 17.64 4 19 C0.3112362 21.45917586 -2.7184429 21.81591937 -7 21 C-10.0220794 19.25549494 -12.41651082 17.16697836 -14 14 C-14.38482057 9.92090194 -14.44121857 7.70910127 -12.25 4.1875 C-8.29226603 0.33970309 -5.54946339 -0.47229476 0 0 Z " fill="#C92E34" transform="translate(81,64)"/>
<path d="M0 0 C1.32 0 2.64 0 4 0 C4.66 1.65 5.32 3.3 6 5 C7.70840281 3.36587557 8.93453047 2.13093906 10 0 C11.32 0 12.64 0 14 0 C14.1875 2.3125 14.1875 2.3125 14 5 C13 6 12 7 11 8 C11.28516028 11.0417096 12.26030535 12.39045802 14 15 C14 16.32 14 17.64 14 19 C12.68 19 11.36 19 10 19 C9.34 17.35 8.68 15.7 8 14 C7.34 14 6.68 14 6 14 C5.34 15.65 4.68 17.3 4 19 C2.68 19 1.36 19 0 19 C0 17.35 0 15.7 0 14 C0.66 14 1.32 14 2 14 C2.76716851 11.14921909 2.76716851 11.14921909 3 8 C1.58333333 6.41666667 1.58333333 6.41666667 0 5 C-0.1875 2.3125 -0.1875 2.3125 0 0 Z " fill="#334B8F" transform="translate(37,87)"/>
<path d="M0 0 C3.5625 0.1875 3.5625 0.1875 6.5625 1.1875 C6.5625 2.8375 6.5625 4.4875 6.5625 6.1875 C3.79973823 5.66481534 1.2364124 5.07880413 -1.4375 4.1875 C0.23310758 6.02516833 1.31500471 7.10014872 3.6875 7.9375 C5.5625 9.1875 5.5625 9.1875 6.5 12.625 C6.5625 16.1875 6.5625 16.1875 5.5625 18.125 C2.49679169 19.75365754 -0.03192283 19.49156939 -3.4375 19.1875 C-4.4275 18.5275 -5.4175 17.8675 -6.4375 17.1875 C-6.1075 15.8675 -5.7775 14.5475 -5.4375 13.1875 C-3.1275 13.5175 -0.8175 13.8475 1.5625 14.1875 C0.799375 13.589375 0.03625 12.99125 -0.75 12.375 C-1.636875 11.653125 -2.52375 10.93125 -3.4375 10.1875 C-4.05625 9.713125 -4.675 9.23875 -5.3125 8.75 C-6.4375 7.1875 -6.4375 7.1875 -6.25 4.625 C-4.95537005 0.74111015 -4.12111493 0.22478809 0 0 Z " fill="#324D93" transform="translate(113.4375,86.8125)"/>
<path d="M0 0 C3.5 0.1875 3.5 0.1875 5.5 1.1875 C5.5 2.5075 5.5 3.8275 5.5 5.1875 C3.19 4.8575 0.88 4.5275 -1.5 4.1875 C0.30834309 6.09101904 2.01649131 7.54784277 4.1875 9.0625 C6.5 11.1875 6.5 11.1875 7 13.75 C6.5 16.1875 6.5 16.1875 5.4375 18 C2.43702602 19.83900018 -0.06481613 19.49421285 -3.5 19.1875 C-4.49 18.5275 -5.48 17.8675 -6.5 17.1875 C-6.17 15.8675 -5.84 14.5475 -5.5 13.1875 C-3.19 13.5175 -0.88 13.8475 1.5 14.1875 C0.736875 13.589375 -0.02625 12.99125 -0.8125 12.375 C-1.699375 11.653125 -2.58625 10.93125 -3.5 10.1875 C-4.11875 9.713125 -4.7375 9.23875 -5.375 8.75 C-6.5 7.1875 -6.5 7.1875 -6.3125 4.625 C-5.005077 0.702731 -4.16236167 0.22298366 0 0 Z " fill="#2F4A92" transform="translate(129.5,86.8125)"/>
<path d="M0 0 C4.29 0 8.58 0 13 0 C12.67 1.32 12.34 2.64 12 4 C8.9375 5.25 8.9375 5.25 6 6 C5.67 9.96 5.34 13.92 5 18 C3.35 18 1.7 18 0 18 C0 12.06 0 6.12 0 0 Z " fill="#2A4590" transform="translate(73,87)"/>
<path d="M0 0 C3.0625 0.3125 3.0625 0.3125 4.9375 1.5 C6.46909584 3.96757108 6.49072025 5.45769831 6.0625 8.3125 C4.9375 10.125 4.9375 10.125 3.0625 11.3125 C-0.11384515 11.70954314 -2.07753001 11.81183741 -4.875 10.1875 C-5.9375 8.3125 -5.9375 8.3125 -5.75 5.25 C-4.6778982 1.37393966 -4.050591 0.43091394 0 0 Z " fill="#FAF2F2" transform="translate(97.9375,68.6875)"/>
<path d="M0 0 C2.375 -0.125 2.375 -0.125 5 0 C7 2 7 2 7.22705078 3.97119141 C7.21134033 5.1494751 7.21134033 5.1494751 7.1953125 6.3515625 C7.18564453 7.62773438 7.18564453 7.62773438 7.17578125 8.9296875 C7.15902344 9.81914063 7.14226562 10.70859375 7.125 11.625 C7.11597656 12.5221875 7.10695312 13.419375 7.09765625 14.34375 C7.0740497 16.56276586 7.0411231 18.78125077 7 21 C5.68 21 4.36 21 3 21 C2.67 16.05 2.34 11.1 2 6 C1.01 5.67 0.02 5.34 -1 5 C-0.67 3.35 -0.34 1.7 0 0 Z " fill="#C9272D" transform="translate(129,64)"/>
<path d="M0 0 C2.10353495 -0.0810206 4.20795952 -0.13919907 6.3125 -0.1875 C7.48425781 -0.22230469 8.65601563 -0.25710937 9.86328125 -0.29296875 C13 0 13 0 14.921875 1.36328125 C16 3 16 3 15.9375 5.375 C14.78159304 8.61153948 13.431202 10.568798 11 13 C8.25 13.8125 8.25 13.8125 6 14 C5.71428571 5.42857143 5.71428571 5.42857143 8 2 C5.36 1.67 2.72 1.34 0 1 C0 0.67 0 0.34 0 0 Z " fill="#41599A" transform="translate(54,87)"/>
<path d="M0 0 C5.36842105 -0.35789474 5.36842105 -0.35789474 7.875 1.0625 C9.58196395 4.00227124 9.18799766 6.67870803 9 10 C5.04 10 1.08 10 -3 10 C-2.67 9.01 -2.34 8.02 -2 7 C0.31 7 2.62 7 5 7 C3.36526484 3.87525373 3.36526484 3.87525373 0.875 3.3125 C0.25625 3.209375 -0.3625 3.10625 -1 3 C-0.67 2.01 -0.34 1.02 0 0 Z " fill="#25418E" transform="translate(95,88)"/>
<path d="M0 0 C1.45742463 -0.08096803 2.91612807 -0.13917774 4.375 -0.1875 C5.18710937 -0.22230469 5.99921875 -0.25710937 6.8359375 -0.29296875 C7.55007812 -0.19628906 8.26421875 -0.09960938 9 0 C9.66 0.99 10.32 1.98 11 3 C9.02 3.66 7.04 4.32 5 5 C5 7.64 5 10.28 5 13 C4.34 13 3.68 13 3 13 C3 14.65 3 16.3 3 18 C2.67 18 2.34 18 2 18 C2 13.05 2 8.1 2 3 C1.34 3 0.68 3 0 3 C0 2.01 0 1.02 0 0 Z " fill="#203E8C" transform="translate(54,88)"/>
<path d="M0 0 C3.625 0.125 3.625 0.125 6.625 1.125 C6.625 2.775 6.625 4.425 6.625 6.125 C3.86223823 5.60231534 1.2989124 5.01630413 -1.375 4.125 C-1.705 4.785 -2.035 5.445 -2.375 6.125 C-2.375 5.465 -2.375 4.805 -2.375 4.125 C-3.365 4.455 -4.355 4.785 -5.375 5.125 C-4.25331325 0.15753012 -4.25331325 0.15753012 0 0 Z " fill="#304A91" transform="translate(113.375,86.875)"/>
<path d="M0 0 C1.67542976 0.28604898 3.34385343 0.61781233 5 1 C5.1875 3.875 5.1875 3.875 5 7 C2 9 2 9 -1 9 C-1.09765625 2.84765625 -1.09765625 2.84765625 -1 1 C-0.67 0.67 -0.34 0.34 0 0 Z " fill="#F8F9FA" transform="translate(61,92)"/>
<path d="M0 0 C0.99 0.99 1.98 1.98 3 3 C2.34 4.98 1.68 6.96 1 9 C-0.65 9.33 -2.3 9.66 -4 10 C-4 8.35 -4 6.7 -4 5 C-3.34 5 -2.68 5 -2 5 C-1.34 3.35 -0.68 1.7 0 0 Z " fill="#364F92" transform="translate(41,96)"/>
<path d="M0 0 C2.5 2.25 2.5 2.25 5 5 C5 6.32 5 7.64 5 9 C3.68 9 2.36 9 1 9 C0.01 7.02 -0.98 5.04 -2 3 C-1.34 2.01 -0.68 1.02 0 0 Z " fill="#C52C33" transform="translate(46,97)"/>
<path d="M0 0 C1.32 0 2.64 0 4 0 C4.99 1.98 5.98 3.96 7 6 C6.01 6.99 5.02 7.98 4 9 C0.06153846 5.67692308 0.06153846 5.67692308 -0.25 2.25 C-0.1675 1.5075 -0.085 0.765 0 0 Z " fill="#C82E35" transform="translate(37,87)"/>
<path d="M0 0 C2.64 0.66 5.28 1.32 8 2 C8 2.99 8 3.98 8 5 C5.36 5 2.72 5 0 5 C-0.33 4.01 -0.66 3.02 -1 2 C-0.67 1.34 -0.34 0.68 0 0 Z " fill="#27438E" transform="translate(108,100)"/>
<path d="M0 0 C0.33 0 0.66 0 1 0 C1 1.65 1 3.3 1 5 C0.01 5 -0.98 5 -2 5 C-2 5.66 -2 6.32 -2 7 C-4.475 6.01 -4.475 6.01 -7 5 C-7 4.34 -7 3.68 -7 3 C-4.69 3.33 -2.38 3.66 0 4 C0 2.68 0 1.36 0 0 Z " fill="#C2CADC" transform="translate(135,88)"/>
<path d="M0 0 C0.33 1.32 0.66 2.64 1 4 C0.01 4.33 -0.98 4.66 -2 5 C-4.6875 3.0625 -4.6875 3.0625 -7 1 C-2.25 0 -2.25 0 0 0 Z " fill="#455D9B" transform="translate(102,100)"/>
<path d="M0 0 C0.66 0 1.32 0 2 0 C2.625 2.375 2.625 2.375 3 5 C2.34 5.66 1.68 6.32 1 7 C0.34 6.34 -0.32 5.68 -1 5 C-0.625 2.375 -0.625 2.375 0 0 Z " fill="#342933" transform="translate(43,93)"/>
<path d="M0 0 C2.4375 0.375 2.4375 0.375 5 1 C5.33 1.66 5.66 2.32 6 3 C3.36 3 0.72 3 -2 3 C-1.34 2.01 -0.68 1.02 0 0 Z " fill="#E7EAF1" transform="translate(94,91)"/>
<path d="M0 0 C1.65 0 3.3 0 5 0 C5.33 0.66 5.66 1.32 6 2 C3.69 2.66 1.38 3.32 -1 4 C-0.67 2.68 -0.34 1.36 0 0 Z " fill="#213E8C" transform="translate(125,88)"/>
<path d="M0 0 C1.65 0 3.3 0 5 0 C5 1.65 5 3.3 5 5 C3.68 5 2.36 5 1 5 C1 4.34 1 3.68 1 3 C1.66 3 2.32 3 3 3 C3 2.34 3 1.68 3 1 C2.01 0.67 1.02 0.34 0 0 Z " fill="#4A619E" transform="translate(115,88)"/>
</svg>
